<svg xmlns="http://www.w3.org/2000/svg" width="1400" height="900" viewBox="0 0 1400 900" role="img" aria-label="Certiva color palette">
  <style>@font-face{font-family:Manrope;src:url("fonts/Manrope-wght.ttf") format("truetype");font-weight:200 800}</style>
  <title>Certiva color palette</title>
  <rect width="1400" height="900" fill="#FFFFFF"/>
  <text x="80" y="105" fill="#111827" font-family="Manrope,Arial,sans-serif" font-size="54" font-weight="750">Certiva color system</text>
  <text x="82" y="152" fill="#576A5F" font-family="Manrope,Arial,sans-serif" font-size="22">Operational clarity, with a restrained signal of green.</text>
  <g font-family="Manrope,Arial,sans-serif" font-size="18" font-weight="600">
    <rect x="80" y="205" width="290" height="220" rx="22" fill="#060D08"/><text x="104" y="369" fill="white">Night · #060D08</text>
    <rect x="395" y="205" width="290" height="220" rx="22" fill="#0D1710"/><text x="419" y="369" fill="white">Surface · #0D1710</text>
    <rect x="710" y="205" width="290" height="220" rx="22" fill="#1A4731"/><text x="734" y="369" fill="white">Forest · #1A4731</text>
    <rect x="1025" y="205" width="290" height="220" rx="22" fill="#2D6A4F"/><text x="1049" y="369" fill="white">Mid · #2D6A4F</text>
    <rect x="80" y="455" width="290" height="220" rx="22" fill="#40916C"/><text x="104" y="619" fill="white">Leaf · #40916C</text>
    <rect x="395" y="455" width="290" height="220" rx="22" fill="#52C27A"/><text x="419" y="619" fill="#060D08">Signal · #52C27A</text>
    <rect x="710" y="455" width="290" height="220" rx="22" fill="#D8F3DC" stroke="#C8DACC"/><text x="734" y="619" fill="#1A4731">Pale · #D8F3DC</text>
    <rect x="1025" y="455" width="290" height="220" rx="22" fill="#F0FAF4" stroke="#C8DACC"/><text x="1049" y="619" fill="#1A4731">Mist · #F0FAF4</text>
  </g>
  <line x1="80" y1="733" x2="1320" y2="733" stroke="#D8E5DC" stroke-width="2"/>
  <rect x="80" y="775" width="98" height="55" rx="12" fill="#111827"/><text x="194" y="811" fill="#111827" font-family="Manrope,Arial,sans-serif" font-size="20">Ink · #111827</text>
  <rect x="542" y="775" width="98" height="55" rx="12" fill="white" stroke="#CADACC"/><text x="656" y="811" fill="#111827" font-family="Manrope,Arial,sans-serif" font-size="20">White · #FFFFFF</text>
  <rect x="995" y="775" width="98" height="55" rx="12" fill="#1A2E1E"/><text x="1109" y="811" fill="#111827" font-family="Manrope,Arial,sans-serif" font-size="20">Border · #1A2E1E</text>
</svg>
